<?xml version="1.0" encoding="utf-8"?>
<!-- Generator: Adobe Illustrator 25.0.1, SVG Export Plug-In . SVG Version: 6.00 Build 0)  -->
<svg version="1.1" id="Ebene_1" xmlns="http://www.w3.org/2000/svg" xmlns:xlink="http://www.w3.org/1999/xlink" x="0px" y="0px"
	 viewBox="0 0 1900 300" style="enable-background:new 0 0 1900 300;" xml:space="preserve">
<style type="text/css">
	.st0{fill:#1A1E32;}
	.st1{enable-background:new    ;}
	.st2{fill:#C83E42;}
</style>
<polygon class="st0" points="1234.16,20.1 1203.66,20.1 1203.66,203.58 1304.73,203.58 1304.73,174.9 1234.16,174.9 "/>
<path class="st0" d="M1428.57,31.03c-10.47-7.74-25.95-11.38-46.44-11.38c-0.46,0-0.91,0-1.37,0h-54.18v183.94h30.5v-68.75h23.67
	c21.85,0.46,37.33-3.19,47.8-10.93c15.48-10.93,23.67-26.41,24.13-46.44C1451.79,57.89,1444.05,41.96,1428.57,31.03z M1395.33,105.7
	c-1.82,0-4.55,0.46-7.28,0.46c-2.28,0-6.83,0-13.2,0h-17.76V48.79h17.76c6.37,0,10.47,0,13.2,0s5.46,0,7.28,0.46
	c3.64,0.46,7.28,1.37,10.47,3.19c10.47,5.01,15.94,13.2,15.94,24.59c-0.46,11.84-5.46,20.03-15.94,25.04
	C1402.16,104.33,1398.52,105.24,1395.33,105.7z"/>
<polygon class="st0" points="1579.27,94.77 1504.6,94.77 1504.6,20.1 1474.09,20.1 1474.09,203.58 1504.6,203.58 1504.6,123.91 
	1579.27,123.91 1579.27,203.58 1609.77,203.58 1609.77,20.1 1579.27,20.1 "/>
<path class="st0" d="M1738.16,20.1h-27.77l-78.31,183.94h32.33l25.04-57.37h70.57l24.59,57.37h33.24L1738.16,20.1z M1700.83,117.53
	l23.22-54.18l22.76,54.18H1700.83z"/>
<g>
	<g class="st1">
		<path class="st0" d="M1221.45,293.7v-49.61h4.69v6.43h0.16c3.44-4.77,8.21-7.23,14.31-7.39c11.97,0.9,18.56,7.31,19.76,19.24
			c-1.07,11.97-7.66,18.41-19.76,19.3c-6.26-0.2-11.03-2.63-14.31-7.29h-0.16v19.3H1221.45z M1255.7,262.57
			c-0.61-9.37-5.64-14.43-15.07-15.2c-8.97,0.81-13.89,5.85-14.74,15.13c0.77,9.15,5.68,14.15,14.74,15
			C1249.91,276.88,1254.93,271.9,1255.7,262.57z"/>
		<path class="st0" d="M1265.81,262.7c0.96-11.75,7.35-18.27,19.17-19.57c11.58,1.14,18,7.57,19.27,19.3
			c-1.25,11.78-7.67,18.19-19.27,19.24C1273.45,280.58,1267.06,274.26,1265.81,262.7z M1270.5,262.64c0.79,9,5.63,13.95,14.54,14.87
			c9.04-0.92,13.88-6.01,14.51-15.27c-0.64-8.78-5.47-13.73-14.51-14.87C1275.96,248.44,1271.12,253.53,1270.5,262.64z"/>
		<path class="st0" d="M1321.88,280.86l-13.99-36.77h4.89l11.56,30.79h0.13l8.4-26.36h4.1l8.47,26.36h0.16l11.69-30.79h4.83
			l-14.05,36.77h-5.29l-7.81-24.46h-0.13l-7.68,24.46H1321.88z"/>
		<path class="st0" d="M1403.73,264.18h-33.49c1.27,8.01,6.02,12.45,14.25,13.33c6.43-0.33,10.83-3.23,13.2-8.7h4.96
			c-3.33,8.14-9.35,12.43-18.06,12.87c-11.75-1.12-18.14-7.51-19.17-19.17c1.07-11.64,7.43-18.1,19.07-19.37
			c7.09,0.24,12.56,3.38,16.42,9.42C1403.03,255.95,1403.97,259.83,1403.73,264.18z M1370.24,259.95h28.73
			c-1.69-7.75-6.48-11.94-14.38-12.57C1376.58,248.05,1371.79,252.24,1370.24,259.95z"/>
		<path class="st0" d="M1410.92,280.86v-36.77h4.7v5.32h0.16c1.6-4.03,5.04-6.12,10.34-6.27v4.99c-3.46,0.31-6.11,1.51-7.94,3.61
			c-1.71,2.19-2.56,4.73-2.56,7.62v21.5H1410.92z"/>
		<path class="st0" d="M1467.65,264.18h-33.49c1.27,8.01,6.02,12.45,14.25,13.33c6.43-0.33,10.83-3.23,13.2-8.7h4.96
			c-3.33,8.14-9.35,12.43-18.06,12.87c-11.75-1.12-18.14-7.51-19.17-19.17c1.07-11.64,7.43-18.1,19.07-19.37
			c7.09,0.24,12.56,3.38,16.42,9.42C1466.95,255.95,1467.89,259.83,1467.65,264.18z M1434.16,259.95h28.73
			c-1.69-7.75-6.48-11.94-14.38-12.57C1440.5,248.05,1435.71,252.24,1434.16,259.95z"/>
		<path class="st0" d="M1512.03,231.09v49.77h-4.73v-6.47h-0.13c-3.24,4.62-8.01,7.05-14.31,7.29c-12.13-0.9-18.71-7.33-19.76-19.3
			c1.16-11.93,7.75-18.34,19.76-19.24c6.21,0.2,10.99,2.62,14.31,7.25h0.13v-19.3H1512.03z M1477.79,262.57
			c0.74,9.32,5.77,14.3,15.07,14.94c9.02-0.85,13.92-5.85,14.71-15c-0.88-9.28-5.78-14.33-14.71-15.13
			C1483.41,248.14,1478.38,253.21,1477.79,262.57z"/>
		<path class="st0" d="M1539.68,280.86v-49.77h4.73v19.44h0.13c3.42-4.75,8.19-7.21,14.31-7.39c11.99,0.9,18.58,7.31,19.76,19.24
			c-1.07,11.97-7.66,18.41-19.76,19.3c-6.24-0.17-11.01-2.6-14.31-7.29h-0.13v6.47H1539.68z M1573.92,262.57
			c-0.61-9.37-5.64-14.43-15.07-15.2c-8.97,0.81-13.89,5.85-14.74,15.13c0.77,9.15,5.68,14.15,14.74,15
			C1568.13,276.88,1573.15,271.9,1573.92,262.57z"/>
		<path class="st0" d="M1589.87,293.7l6.4-14.05l-14.31-35.55h4.96l11.72,29.32l12.51-29.32h4.96l-21.31,49.61H1589.87z"/>
		<path class="st0" d="M1636.1,280.86l16.88-25.41l-15.92-24.36h5.84l13.26,19.93l13.1-19.93h5.78l-15.99,24.36l17.01,25.41h-5.91
			l-13.99-21.24l-14.18,21.24H1636.1z"/>
		<path class="st0" d="M1681.57,280.86v-49.77h6.7l27.77,41.3h0.13v-41.3h4.99v49.77h-4.99l-29.51-43.76h-0.13v43.76H1681.57z"/>
		<path class="st0" d="M1729.07,262.7c0.96-11.75,7.35-18.27,19.17-19.57c11.58,1.14,18,7.57,19.27,19.3
			c-1.25,11.78-7.67,18.19-19.27,19.24C1736.71,280.58,1730.32,274.26,1729.07,262.7z M1733.77,262.64
			c0.79,9,5.63,13.95,14.54,14.87c9.04-0.92,13.88-6.01,14.51-15.27c-0.64-8.78-5.47-13.73-14.51-14.87
			C1739.23,248.44,1734.38,253.53,1733.77,262.64z"/>
		<path class="st0" d="M1811.84,231.09v49.77h-4.73v-6.47h-0.13c-3.24,4.62-8.01,7.05-14.31,7.29c-12.13-0.9-18.71-7.33-19.76-19.3
			c1.16-11.93,7.75-18.34,19.76-19.24c6.21,0.2,10.99,2.62,14.31,7.25h0.13v-19.3H1811.84z M1777.6,262.57
			c0.74,9.32,5.77,14.3,15.07,14.94c9.02-0.85,13.92-5.85,14.71-15c-0.88-9.28-5.78-14.33-14.71-15.13
			C1783.21,248.14,1778.19,253.21,1777.6,262.57z"/>
		<path class="st0" d="M1857.18,264.18h-33.49c1.27,8.01,6.02,12.45,14.25,13.33c6.43-0.33,10.83-3.23,13.2-8.7h4.96
			c-3.33,8.14-9.35,12.43-18.06,12.87c-11.75-1.12-18.14-7.51-19.17-19.17c1.07-11.64,7.43-18.1,19.07-19.37
			c7.09,0.24,12.56,3.38,16.42,9.42C1856.48,255.95,1857.42,259.83,1857.18,264.18z M1823.69,259.95h28.73
			c-1.69-7.75-6.48-11.94-14.38-12.57C1830.03,248.05,1825.24,252.24,1823.69,259.95z"/>
	</g>
</g>
<g class="st1">
	<path class="st0" d="M190.88,150.71h19.65c-18.11,30.91-45.01,47.17-80.69,48.78c-56.26-5.24-86.82-35.33-91.67-90.28
		c4.7-55.33,35.18-85.54,91.44-90.63c35.99,1.31,62.73,17.26,80.23,47.86h-19.65c-14.03-20.19-34.3-30.86-60.81-32.02
		c-44.24,4.55-68.78,29.56-73.64,75.02c4.62,44.31,29.25,69.09,73.87,74.33C153.89,183.47,174.31,172.45,190.88,150.71z"/>
	<path class="st0" d="M234.01,196.61V21.36h17.46v77.22h90.75V21.36h17.46v175.25h-17.46v-82.19h-90.75v82.19H234.01z"/>
	<path class="st0" d="M391.12,196.61V21.36h17.46v175.25H391.12z"/>
	<path class="st0" d="M439.8,196.61V21.36h23.58l97.8,145.42h0.46V21.36h17.57v175.25h-17.57L457.71,42.51h-0.46v154.09H439.8z"/>
	<path class="st0" d="M609.16,196.61V21.36h95.95v15.95h-78.38v62.89h75.72v15.95h-75.72v64.62h78.38v15.84H609.16z"/>
	<path class="st0" d="M720.15,147.59h17.57c1.85,23.2,13.99,35.26,36.41,36.18c21.73-2,33.48-13.6,35.26-34.79
		c0.08-18.42-12.95-30.87-39.07-37.34c-0.62-0.15-1.5-0.38-2.66-0.69c-28.9-6.94-43.16-22.12-42.77-45.55
		c2.31-29.05,18.73-44.74,49.25-47.05c29.67,2.31,45.85,18.19,48.55,47.63h-17.57c-1.85-19.19-12.18-29.78-30.98-31.79
		c-19.27,1.31-29.82,11.48-31.67,30.52c-1.62,15.65,12.25,26.63,41.62,32.95c27.74,7.86,42.04,24.74,42.89,50.63
		c-3.16,31.67-20.77,48.74-52.83,51.21C739.91,197.11,721.92,179.81,720.15,147.59z"/>
	<path class="st0" d="M844.77,196.61V21.36h95.95v15.95h-78.38v62.89h75.72v15.95h-75.72v64.62h78.38v15.84H844.77z"/>
</g>
<g>
	<path class="st2" d="M1168.14,25.11c-1.82,18.67-5.01,78.76-5.01,125.66c0,20.49,5.46,29.59,19.12,29.59l-2.73,22.76
		c-2.28,0.91-7.74,1.37-11.84,1.37c-16.85,0-30.96-10.02-32.78-36.88h-1.37c-12.75,20.94-34.6,36.88-65.11,36.88
		c-45.53,0-77.85-35.06-77.85-88.33c0-57.37,40.98-95.61,85.14-95.61c27.77,0,48.72,13.2,58.73,35.06h1.37
		c0.91-13.66,1.82-22.31,3.64-31.41h28.68V25.11z M1077.09,179.91c24.13,0,45.07-21.4,50.99-44.62c1.82-8.2,2.28-15.02,2.28-24.59
		c0-6.83,0-12.75-1.37-19.12c-4.55-23.67-23.67-45.07-48.72-45.07c-32.33,0-54.18,29.59-54.18,69.2
		C1025.18,149.4,1043.85,179.91,1077.09,179.91z"/>
</g>
</svg>
