<?xml version="1.0" encoding="utf-8"?>
<!-- Generator: Adobe Illustrator 25.3.1, SVG Export Plug-In . SVG Version: 6.00 Build 0)  -->
<svg version="1.1" id="Calque_1" xmlns="http://www.w3.org/2000/svg" xmlns:xlink="http://www.w3.org/1999/xlink" x="0px" y="0px"
	 viewBox="0 0 160 77.6" style="enable-background:new 0 0 160 77.6;" xml:space="preserve">
<style type="text/css">
	.st0{fill:#FFFFFF;}
</style>
<g>
	<path class="st0" d="M10.3,25.4v-1.3H4.7v-2h3v-1.3h-3v-1.8h5.5v-1.3H3.3v7.7H10.3L10.3,25.4z M21.8,23c0-2-1.9-2.2-4-2.2
		c-1.5,0-2-0.1-2.2-0.4c-0.1-0.1-0.1-0.3-0.1-0.5c0-0.8,0.8-1.1,2.1-1.1c1.3,0,2.2,0.2,3.3,0.9l0.6-1.2c-1.2-0.7-2.5-1-3.9-1
		c-1.6,0-3.4,0.6-3.4,2.4c0,0.8,0.4,1.5,1.1,1.8c0.4,0.2,0.7,0.3,3,0.3c1.2,0,1.9,0.1,2.1,0.5c0.1,0.2,0.1,0.4,0.1,0.6
		c0,1-1,1.2-2.5,1.2c-1.5,0-2.5-0.3-3.8-1.1l-0.6,1.1c1.4,1,3,1.3,4.6,1.3C20,25.7,21.8,25.2,21.8,23 M32.5,19.1v-1.3h-7.2v1.3h2.9
		v6.4h1.3v-6.4H32.5L32.5,19.1z M38.7,24.8c0-0.6-0.5-1-1-1c-0.6,0-1,0.5-1,1c0,0.6,0.5,1,1,1C38.2,25.8,38.7,25.3,38.7,24.8"/>
	<path class="st0" d="M126.6,25.5v-1h-5.9c0.2-1.3,0.7-2.2,2.1-2.4c0.5-0.1,1.1-0.1,1.6-0.2c1.1-0.1,2.2-0.7,2.2-2
		c0-1.7-1.8-2.3-3.3-2.3c-1.5,0-2.2,0.2-3.5,1l0.5,0.9c1.1-0.6,1.8-0.8,3-0.8c0.8,0,2.3,0.2,2.3,1.2c0,0.6-0.7,0.8-1.2,0.9
		c-0.5,0.1-1,0.1-1.6,0.2c-2.2,0.2-3.2,2-3.2,4.1c0,0.1,0,0.3,0,0.4H126.6L126.6,25.5z M139.1,21.7c0-2.6-2.1-4-4.5-4
		c-2.4,0-4.4,1.5-4.4,4c0,2.6,2.1,4,4.5,4C137.1,25.6,139.1,24.2,139.1,21.7 M138.1,21.7c0,2-1.6,2.9-3.4,2.9c-1.8,0-3.4-1-3.4-3
		c0-1.9,1.5-2.9,3.3-2.9C136.4,18.7,138.1,19.7,138.1,21.7 M150.6,21.7c0-2.6-2.1-4-4.5-4c-2.4,0-4.4,1.5-4.4,4c0,2.6,2.1,4,4.5,4
		C148.6,25.6,150.6,24.2,150.6,21.7 M149.6,21.7c0,2-1.6,2.9-3.4,2.9c-1.8,0-3.4-1-3.4-3c0-1.9,1.5-2.9,3.3-2.9
		C147.9,18.7,149.6,19.7,149.6,21.7 M156.6,17.8h-1v7.6h1V17.8L156.6,17.8z"/>
	<path class="st0" d="M146.2,25.7c-2.7,0-4.6-1.7-4.6-4.1c0-2.4,1.9-4.1,4.5-4.1c3.2,0,4.6,2.1,4.6,4.1
		C150.7,24.1,148.8,25.7,146.2,25.7L146.2,25.7z M146.1,17.8c-2.6,0-4.3,1.6-4.3,3.9c0,2.7,2.3,3.9,4.4,3.9c3,0,4.4-1.9,4.4-3.9
		C150.5,19,148.2,17.8,146.1,17.8L146.1,17.8z M134.6,25.7c-2.7,0-4.6-1.7-4.6-4.1c0-2.4,1.9-4.1,4.5-4.1c3.2,0,4.6,2.1,4.6,4.1
		C139.2,24.1,137.3,25.7,134.6,25.7L134.6,25.7z M134.6,17.8c-2.6,0-4.3,1.6-4.3,3.9c0,2.7,2.3,3.9,4.4,3.9c3,0,4.4-1.9,4.4-3.9
		C139,19,136.7,17.8,134.6,17.8L134.6,17.8z M126.7,25.5h-7.1v-0.1c0-0.1,0-0.1,0-0.2c0-0.1,0-0.1,0-0.2c0-1.8,0.8-3.9,3.2-4.2
		c0.3,0,0.6-0.1,0.8-0.1c0.2,0,0.5,0,0.7-0.1c0.3,0,1.1-0.2,1.1-0.8c0-1.1-1.8-1.1-2.2-1.1c-1.2,0-1.9,0.3-3,0.8l-0.1,0l-0.6-1.1
		l0.1,0c1.3-0.7,2-1,3.5-1c1.5,0,3.3,0.6,3.3,2.3c0,1.4-1.2,2-2.3,2.1c-0.2,0-0.5,0-0.7,0.1c-0.3,0-0.6,0.1-0.9,0.1
		c-1.1,0.1-1.7,0.8-2,2.2h5.9V25.5L126.7,25.5z M119.8,25.4h6.8v-0.8h-5.9l0-0.1c0.2-1,0.5-2.3,2.2-2.5c0.3,0,0.6-0.1,0.9-0.1
		c0.2,0,0.5,0,0.7-0.1c1-0.1,2.1-0.7,2.1-1.9c0-1.6-1.7-2.2-3.2-2.2c-1.5,0-2.1,0.2-3.4,0.9l0.4,0.8c1-0.5,1.7-0.8,3-0.8
		c1.1,0,2.3,0.3,2.3,1.3c0,0.8-1,1-1.3,1c-0.2,0-0.5,0.1-0.7,0.1c-0.3,0-0.6,0.1-0.8,0.1c-2.3,0.2-3.1,2.2-3.1,4c0,0.1,0,0.1,0,0.2
		C119.8,25.3,119.8,25.3,119.8,25.4L119.8,25.4z M156.7,25.5h-1.2v-7.8h1.2V25.5L156.7,25.5z M155.6,25.4h0.8v-7.4h-0.8V25.4
		L155.6,25.4z M146.2,24.7c-1.8,0-3.5-0.9-3.5-3c0-2.1,1.8-3,3.4-3c1.8,0,3.6,0.9,3.6,3C149.7,23.8,147.9,24.7,146.2,24.7
		L146.2,24.7z M146,18.8c-1.6,0-3.2,0.9-3.2,2.8c0,1.3,0.9,2.9,3.4,2.9c2.5,0,3.3-1.5,3.3-2.8C149.5,20.4,148.6,18.8,146,18.8
		L146,18.8z M134.7,24.7c-1.8,0-3.5-0.9-3.5-3c0-2.1,1.8-3,3.4-3c1.8,0,3.6,0.9,3.6,3C138.2,23.8,136.4,24.7,134.7,24.7L134.7,24.7z
		 M134.5,18.8c-1.6,0-3.2,0.9-3.2,2.8c0,1.3,0.9,2.9,3.4,2.9c2.5,0,3.3-1.5,3.3-2.8C138,20.4,137.1,18.8,134.5,18.8L134.5,18.8z"/>
	<path class="st0" d="M65.4,39.1l-0.1,1.6c2.4,0.1,4.4-1.6,5.2-3.4c0.6-1.3,0.8-2.8,0.6-4.4c-0.2-2.2-1.2-4.2-2.7-5.3
		c-0.1-0.1-0.2-0.1-0.3-0.2c0,0.1,0,0.1-0.1,0.2c-0.2,0.4-0.4,0.9-0.6,1.3c1.1,0.9,1.9,2.4,2.1,4.2c0.1,1.3,0,2.5-0.5,3.5
		C68.5,37.9,67.1,39.2,65.4,39.1"/>
	<path class="st0" d="M107.7,32c-0.6-2.3-2.5-3.7-4.7-3.3l0.3,1.6c1.4-0.2,2.6,0.6,2.9,2.1c0.2,1,0.1,2.1-0.4,3
		c-0.5,0.8-1.2,1.4-2.3,1.7c-0.3,0.1-0.5,0.1-0.8,0.1c0,0.5-0.1,1.1-0.2,1.6c0.5,0,0.9-0.1,1.4-0.2c1.4-0.4,2.5-1.2,3.2-2.4
		C107.8,34.9,108,33.4,107.7,32"/>
	<path class="st0" d="M76.3,9.8c-0.1-0.1-0.3-0.2-0.4-0.4c-0.4-0.4-0.8-0.7-1.2-1c-0.1-0.1-0.3-0.2-0.4-0.3
		c-0.6-0.4-1.2-0.8-1.7-1.1c-3.2-1.8-6.9-2.5-10.4-2.1c0.1-0.1,0.4-0.2,0.4-0.2C67,2.6,72.4,2.8,77,5.4c0.4-0.4,0.9-0.7,1.4-1
		C78.2,4.2,78,4.1,77.8,4c-3.5-1.9-7.4-2.7-11.2-2.2c-4.6,0.7-6.7,2.8-7.9,3.9l0.8,1.3c4-1.3,8.5-0.8,12.2,1.3c0.5,0.3,1,0.6,1.6,1
		c0.1,0.1,0.3,0.2,0.4,0.3c0.4,0.3,0.8,0.7,1.2,1.1c0.1,0.1,0.3,0.2,0.4,0.4c0.8,0.8,1.6,1.8,2.3,2.9c0.3-0.5,0.6-1,0.9-1.5
		C77.8,11.5,77.1,10.6,76.3,9.8"/>
	<path class="st0" d="M90.3,28.9c-0.2-0.4-0.4-0.9-0.6-1.3c0-0.1,0-0.1-0.1-0.2c-0.1,0.1-0.2,0.1-0.3,0.2c-1.5,1.1-2.5,3.1-2.7,5.3
		c-0.2,1.6,0,3.1,0.6,4.4c0.8,1.8,2.8,3.5,5.2,3.4l-0.1-1.6c-1.7,0.1-3.1-1.2-3.7-2.5c-0.5-1-0.6-2.2-0.5-3.5
		C88.4,31.3,89.1,29.8,90.3,28.9"/>
	<path class="st0" d="M79.9,41.9L79.9,41.9c0.1-0.2,0.2-0.3,0.3-0.5c3.2-5.5,3.3-13.2,2.1-19.5H88c0.6,1.6,1.2,3.2,1.9,4.8
		c0.1,0.2,0.1,0.3,0.2,0.5c0,0.1,0.1,0.2,0.1,0.2c0.2,0.4,0.4,0.8,0.6,1.2c0.1,0.2,0.1,0.3,0.2,0.5c1.6,3.3,3.5,6.6,6.7,8.5
		c0.7,0.4,1.5,0.7,2.3,0.9c0.1-0.5,0.2-1.1,0.2-1.6c-0.6-0.2-1.1-0.4-1.6-0.7c-2.7-1.6-4.6-4.6-6-7.7c-0.1-0.2-0.2-0.3-0.2-0.5l0,0
		c-0.2-0.4-0.4-0.9-0.6-1.3c0-0.1,0-0.1-0.1-0.2c-0.1-0.2-0.1-0.3-0.2-0.5c-0.7-1.6-1.3-3.3-1.9-4.9c-1.4-3.8-2.9-7.7-5.1-11
		C84.2,10,84.1,9.8,84,9.7c-0.3-0.4-0.6-0.9-1-1.3c-0.1-0.1-0.2-0.3-0.3-0.4c-0.6-0.7-1.3-1.4-2-2c-0.5,0.3-0.9,0.6-1.4,0.9
		c0.8,0.6,1.5,1.3,2.2,2.1c0.1,0.1,0.2,0.3,0.3,0.4c0.3,0.4,0.7,0.8,1,1.3c0.1,0.1,0.2,0.3,0.3,0.4c1.8,2.7,3.1,5.9,4.3,9.1h-5.5
		c0-0.1,0-0.1,0-0.2c-0.5-1.9-1.1-3.5-1.8-5c-0.3,0.6-0.6,1.2-0.9,1.9c0.4,1.1,0.8,2.2,1.1,3.5c2.1,8.5,1.1,15-1.1,19.3
		c-0.1,0.2-0.2,0.4-0.3,0.6c-0.1,0.1-0.1,0.2-0.2,0.3c-0.2,0.3-0.4,0.6-0.6,0.9c-0.1,0.1-0.2,0.2-0.2,0.3l0,0
		c-0.2,0.2-0.4,0.5-0.5,0.7c-0.1,0.1-0.2,0.2-0.3,0.3c-0.1,0.1-0.3,0.3-0.4,0.4c-0.1,0.1-0.2,0.2-0.3,0.3c-0.1,0.1-0.3,0.3-0.5,0.4
		c-0.1,0.1-0.2,0.1-0.2,0.2c-0.2,0.2-0.5,0.4-0.7,0.5c-0.2,0.2-0.5,0.3-0.8,0.5c-0.1,0.1-0.2,0.1-0.3,0.1c-0.2,0.1-0.4,0.2-0.5,0.3
		c-0.1,0.1-0.2,0.1-0.3,0.1c-0.2,0.1-0.3,0.1-0.5,0.2c-0.1,0-0.2,0.1-0.4,0.1c-0.2,0.1-0.3,0.1-0.5,0.2c-0.1,0-0.3,0.1-0.4,0.1
		c-0.2,0-0.3,0.1-0.5,0.1c-0.1,0-0.3,0-0.4,0.1c-0.2,0-0.3,0.1-0.5,0.1c-0.1,0-0.3,0-0.4,0c-0.2,0-0.3,0-0.5,0c-0.1,0-0.3,0-0.4,0
		c-0.2,0-0.3,0-0.5,0c-0.2,0-0.4,0-0.5,0c-0.1,0-0.3,0-0.4,0c-0.2,0-0.4,0-0.5-0.1c-0.1,0-0.3,0-0.4-0.1c-0.2,0-0.4-0.1-0.5-0.1
		c-0.1,0-0.3-0.1-0.4-0.1c-0.2,0-0.3-0.1-0.5-0.1c-0.1,0-0.3-0.1-0.4-0.1c-0.2-0.1-0.3-0.1-0.5-0.2c-0.1,0-0.3-0.1-0.4-0.1
		c-0.2-0.1-0.3-0.2-0.5-0.2c-0.1-0.1-0.2-0.1-0.3-0.2c-0.2-0.1-0.4-0.2-0.5-0.3c-0.1-0.1-0.2-0.1-0.3-0.2c-0.3-0.2-0.5-0.4-0.8-0.6
		c-0.2-0.2-0.4-0.4-0.6-0.5c-0.1-0.1-0.1-0.1-0.2-0.2c-0.1-0.1-0.2-0.3-0.4-0.4c-0.1-0.1-0.1-0.2-0.2-0.3c-0.1-0.1-0.2-0.2-0.3-0.4
		c-0.1-0.1-0.1-0.2-0.2-0.3c-0.1-0.1-0.2-0.2-0.2-0.4c-0.1-0.1-0.1-0.2-0.2-0.3c-0.1-0.1-0.1-0.2-0.2-0.4c-0.1-0.1-0.1-0.2-0.2-0.4
		c-0.1-0.1-0.1-0.2-0.2-0.4c-0.1-0.1-0.1-0.3-0.2-0.4c0-0.1-0.1-0.2-0.1-0.4c0-0.1-0.1-0.3-0.1-0.4c-0.1-0.2-0.1-0.4-0.2-0.7
		c-0.1-0.5-0.2-1-0.2-1.6c0-0.2,0-0.4,0-0.5c0-0.3,0-0.6,0-0.8c0.2-3,1.8-5.5,4.3-6.9c1.1-0.6,2.4-0.9,3.6-0.8
		c0.2-0.5,0.4-1,0.7-1.5c0,0,0,0,0-0.1c-1.6-0.3-3.5,0-5,0.9c-2.9,1.7-4.8,4.7-5.1,8.2c0,0.4,0,0.8,0,1.1c0,0.2,0,0.4,0,0.5
		c0,0.5,0.1,1.1,0.2,1.6c0,0.2,0.1,0.4,0.1,0.5c0,0.1,0.1,0.2,0.1,0.3c0,0.1,0.1,0.3,0.1,0.4c0.1,0.2,0.1,0.4,0.2,0.5
		c0,0.1,0.1,0.3,0.2,0.4c0.1,0.2,0.1,0.3,0.2,0.5c0.1,0.1,0.1,0.3,0.2,0.4c0.1,0.2,0.2,0.3,0.3,0.5c0.1,0.1,0.1,0.2,0.2,0.4
		c0.1,0.2,0.2,0.3,0.3,0.5c0.1,0.1,0.2,0.2,0.2,0.3c0.1,0.2,0.2,0.3,0.4,0.5c0.1,0.1,0.2,0.2,0.2,0.3c0.1,0.2,0.3,0.3,0.4,0.5
		c0.1,0.1,0.1,0.2,0.2,0.2c0.2,0.2,0.5,0.4,0.7,0.6c2.3,1.9,5.3,2.8,8.4,2.8c2.7,0,5.5-0.7,7.7-2.3c0.3-0.2,0.5-0.4,0.8-0.6
		c0.1-0.1,0.2-0.2,0.3-0.3c0.1-0.1,0.3-0.2,0.4-0.3c0.1-0.1,0.3-0.2,0.4-0.4c0.1-0.1,0.2-0.2,0.3-0.3c0.1-0.1,0.3-0.3,0.4-0.4
		c0,0,0.1-0.1,0.1-0.1c0.1-0.1,0.2-0.3,0.3-0.4c0,0,0,0,0,0C79.2,42.8,79.6,42.4,79.9,41.9"/>
	<path class="st0" d="M54.2,37c-1-0.3-1.8-0.8-2.3-1.7c-0.5-0.9-0.6-1.9-0.4-3c0.4-1.5,1.5-2.3,2.9-2.1l0.3-1.6
		c-2.2-0.4-4.2,1-4.7,3.3c-0.3,1.4-0.1,2.9,0.6,4.1c0.7,1.2,1.8,2,3.2,2.4c0.4,0.1,0.9,0.2,1.4,0.2c-0.1-0.5-0.2-1.1-0.2-1.6
		C54.8,37.1,54.5,37.1,54.2,37"/>
	<path class="st0" d="M102.2,36.6c0-0.4,0-0.8,0-1.1c-0.3-3.5-2.1-6.5-5.1-8.2c-1.6-0.9-3.4-1.2-5-0.9c0,0,0,0,0,0.1
		c0.2,0.5,0.4,1,0.7,1.5c1.2-0.1,2.5,0.1,3.6,0.8c2.5,1.4,4,3.9,4.3,6.9c0,0.3,0,0.6,0,0.8c0,0.2,0,0.4,0,0.5c0,0.3,0,0.5-0.1,0.8
		c0,0.3-0.1,0.5-0.1,0.8c0,0.2-0.1,0.3-0.1,0.5c-0.5,2-1.7,3.9-3.3,5.2c-3.8,3.1-10.1,3.3-14.2,0.5c-0.9-0.6-1.8-1.4-2.6-2.5
		c-0.3,0.5-0.6,0.9-1,1.4c0.8,0.9,1.6,1.7,2.7,2.4c2.2,1.5,4.9,2.3,7.7,2.3c3.1,0,6.1-0.9,8.4-2.8c1.9-1.6,3.3-3.8,3.9-6.3
		c0-0.2,0.1-0.4,0.1-0.5c0.1-0.5,0.2-1.1,0.2-1.6C102.2,37,102.2,36.8,102.2,36.6"/>
	<path class="st0" d="M73.4,10.1c-2.3,3.3-3.7,7.2-5.1,11c-0.6,1.6-1.2,3.3-1.9,4.9c-0.1,0.2-0.1,0.3-0.2,0.5c0,0.1,0,0.1-0.1,0.2
		c-0.2,0.4-0.4,0.9-0.6,1.3c-0.1,0.2-0.2,0.3-0.2,0.5c-1.4,3-3.2,6.1-6,7.7c-0.5,0.3-1.1,0.5-1.7,0.7c0,0.5,0.1,1.1,0.2,1.6
		c0.8-0.2,1.6-0.5,2.3-0.9c3.1-1.9,5.1-5.2,6.7-8.5c0.1-0.2,0.2-0.3,0.2-0.5l0,0c0.2-0.4,0.4-0.8,0.6-1.2c0-0.1,0.1-0.2,0.1-0.2
		c0.1-0.2,0.1-0.3,0.2-0.5c0.7-1.6,1.3-3.2,1.9-4.8h5.8c-1.2,6.3-1.1,14,2.1,19.5c0.4-0.5,0.7-1,1-1.6c-2.2-4.3-3.2-10.8-1.1-19.3
		c0.3-1.3,0.7-2.4,1.1-3.5c0.1-0.2,0.2-0.4,0.3-0.6c0.3-0.6,0.6-1.2,0.9-1.8c0.1-0.2,0.2-0.4,0.3-0.5c0.7-1.2,1.5-2.1,2.3-2.9
		c-0.3-0.4-0.6-0.9-1-1.3c-0.8,0.8-1.5,1.7-2.2,2.7c-0.1,0.2-0.2,0.3-0.3,0.5c-0.3,0.5-0.6,1-0.9,1.6c-0.1,0.2-0.2,0.4-0.3,0.6
		c-0.7,1.4-1.3,3.1-1.8,5c0,0.1,0,0.1,0,0.2h-5.5c1.2-3.2,2.5-6.4,4.3-9.1C74.2,10.8,73.8,10.4,73.4,10.1"/>
	<path class="st0" d="M91.1,1.8C87.3,1.3,83.4,2.1,79.9,4c-0.2,0.1-0.4,0.2-0.5,0.3c-0.2,0.1-0.3,0.2-0.5,0.3c-0.5,0.3-1,0.7-1.4,1
		c-0.1,0.1-0.3,0.2-0.4,0.4c-0.7,0.6-1.4,1.3-2,2c0.4,0.3,0.8,0.7,1.2,1c0.7-0.8,1.4-1.5,2.2-2.1c0.1-0.1,0.3-0.2,0.4-0.3
		c0.2-0.2,0.4-0.3,0.7-0.5c0.2-0.2,0.5-0.3,0.7-0.5c0.1-0.1,0.3-0.2,0.4-0.3c0,0,0,0,0.1,0c4.6-2.5,10-2.8,14.5-0.7
		c0,0,0.3,0.1,0.4,0.2C92.1,4.5,88.4,5.2,85.2,7c-0.6,0.3-1.1,0.7-1.7,1.1c0.3,0.4,0.7,0.8,1,1.3C85,9,85.5,8.6,86,8.3
		c3.7-2.1,8.1-2.5,12.2-1.3L99,5.7C98.1,4.8,95.8,2.5,91.1,1.8"/>
</g>
<path class="st0" d="M22.9,74.1l-8.5-18.2h-2.2L3.5,74.1h2.4l2.9-6.3h8.8l3,6.3H22.9L22.9,74.1z M16.6,65.7H9.8l3.4-7.2L16.6,65.7
	L16.6,65.7z M48.5,61.2c0-1.7-0.8-3.4-2.2-4.4c-1.4-0.9-2.2-1-5.2-1H32v18.2h2.1v-7.5h7.2l4.2,7.5H48l-4.2-7.5
	c1.1-0.2,1.9-0.4,2.8-1.1C47.8,64.4,48.5,62.8,48.5,61.2 M46.3,61.2c0,1-0.4,2-1.2,2.6c-0.7,0.5-1.5,0.6-3.1,0.6h-7.8V58h8.2
	C44.5,58,46.3,58.8,46.3,61.2 M74.6,74.1l-8.5-18.2h-2.2l-8.7,18.2h2.4l2.9-6.3h8.8l3,6.3H74.6L74.6,74.1z M68.3,65.7h-6.8l3.4-7.2
	L68.3,65.7L68.3,65.7z M100.5,69v-4.9h-8.4v2.1h6.3v2.6c0,1.9-2.2,2.9-3.8,3.3c-0.7,0.1-1.5,0.2-2.2,0.2c-4.3,0-8-2.9-8-7.4
	c0-4.4,3.6-7.4,7.9-7.4c2.7,0,4.4,1,6.3,2.8l1.5-1.5c-2.3-2.2-4.5-3.4-7.8-3.4c-5.5,0-10.1,3.8-10.1,9.5c0,5.8,4.5,9.5,10.1,9.5
	c1.1,0,2.3-0.1,3.4-0.5C98.1,73.4,100.5,71.7,100.5,69 M128.9,64.9c0-5.5-4.4-9.5-9.8-9.5c-5.4,0-9.9,4.1-9.9,9.6
	c0,5.4,4.5,9.5,9.8,9.5C124.5,74.5,128.9,70.5,128.9,64.9 M126.8,65c0,4.3-3.5,7.4-7.7,7.4c-4.1,0-7.7-3.1-7.7-7.3
	c0-4.3,3.6-7.4,7.8-7.4C123.4,57.6,126.8,60.7,126.8,65 M156.1,74.1V55.8h-2.2v15l-11.9-15h-2.1v18.2h2.1V59.2l11.9,14.8H156.1
	L156.1,74.1z"/>
</svg>
