<?xml version="1.0" encoding="UTF-8"?>
<!DOCTYPE svg PUBLIC "-//W3C//DTD SVG 1.1//EN" "http://www.w3.org/Graphics/SVG/1.1/DTD/svg11.dtd">
<svg version="1.1" xmlns="http://www.w3.org/2000/svg" xmlns:xlink="http://www.w3.org/1999/xlink" x="0" y="0" width="540.205" height="147.843" viewBox="0, 0, 540.205, 147.843">
  <g id="Layer_1">
    <path d="M206.874,121.127 C203.258,124.693 198.587,126.301 193.361,126.301 C179.951,126.301 174.626,117.661 174.576,108.066 C174.525,98.975 180.452,89.431 193.361,89.431 C198.185,89.431 202.654,91.289 206.271,94.856 L201.35,99.729 C199.24,97.669 196.176,96.815 193.361,96.815 C185.374,96.815 182.26,102.993 182.312,108.116 C182.361,113.24 185.124,119.067 193.361,119.067 C196.176,119.067 199.893,117.812 202.001,115.702 z" fill="#6D8199"/>
    <path d="M227.475,98.171 L221.397,112.437 L233.503,112.437 z M236.466,119.368 L218.433,119.368 L215.871,125.397 L207.433,125.397 L223.205,90.234 L231.745,90.234 L247.517,125.397 L239.028,125.397 z" fill="#6D8199"/>
    <path d="M259.076,96.966 L259.076,107.213 L268.017,107.213 C271.633,107.213 273.191,104.5 273.191,102.29 C273.141,99.879 271.583,96.966 267.917,96.966 z M282.434,125.397 L273.743,125.397 L264.752,113.843 L259.076,113.843 L259.076,125.397 L251.24,125.397 L251.24,90.235 L267.917,90.235 C276.406,90.235 280.926,95.91 280.926,102.089 C280.876,106.66 279.52,110.729 272.789,113.14 L282.434,124.794 z" fill="#6D8199"/>
    <path d="M314.436,125.397 L287.661,125.397 L287.661,90.235 L313.732,90.235 L313.732,97.418 L295.346,97.418 L295.346,104.2 L312.677,104.2 L312.677,111.081 L295.346,111.081 L295.346,118.164 L314.436,118.164 z" fill="#6D8199"/>
    <path d="M347.392,125.397 L320.619,125.397 L320.619,90.235 L346.689,90.235 L346.689,97.418 L328.304,97.418 L328.304,104.2 L345.634,104.2 L345.634,111.081 L328.304,111.081 L328.304,118.164 L347.392,118.164 z" fill="#6D8199"/>
    <path d="M361.41,96.966 L361.41,107.213 L370.351,107.213 C373.969,107.213 375.525,104.5 375.525,102.29 C375.475,99.879 373.918,96.966 370.251,96.966 z M384.768,125.397 L376.078,125.397 L367.087,113.843 L361.41,113.843 L361.41,125.397 L353.574,125.397 L353.574,90.235 L370.251,90.235 C378.74,90.235 383.262,95.91 383.262,102.089 C383.211,106.66 381.854,110.729 375.124,113.14 L384.768,124.794 z" fill="#6D8199"/>
    <path d="M410.792,98.724 C408.833,96.664 405.417,95.76 402.654,95.76 C399.188,95.76 396.376,97.217 396.376,99.628 C396.376,102.843 399.439,103.446 403.961,103.848 C410.893,104.451 417.473,107.113 417.473,115.25 C417.473,123.086 410.239,126.502 402.654,126.552 C396.576,126.603 390.247,124.242 387.283,119.319 L391.955,114.447 C394.668,117.912 399.139,119.419 402.705,119.419 C406.874,119.419 409.737,117.761 409.737,115.25 C409.787,112.287 407.427,110.93 402.654,110.529 C395.221,109.825 388.59,107.966 388.69,99.678 C388.74,92.696 395.371,88.979 402.604,88.979 C408.029,88.979 412.099,90.185 415.715,94.404 z" fill="#6D8199"/>
    <path d="M446.411,125.446 L446.411,111.532 L430.688,111.532 L430.688,125.446 L422.852,125.446 L422.852,90.284 L430.688,90.284 L430.688,104.349 L446.411,104.349 L446.411,90.284 L454.147,90.284 L454.147,125.446 z" fill="#6D8199"/>
    <path d="M461.988,90.235 L469.775,90.235 L469.775,125.397 L461.988,125.397 z" fill="#6D8199"/>
    <path d="M485.448,108.268 L494.189,108.268 C497.956,108.268 499.814,105.807 499.814,102.994 C499.814,100.181 497.906,97.669 494.189,97.669 L485.448,97.669 z M485.448,115.451 L485.448,125.397 L477.612,125.397 L477.612,90.235 L494.189,90.235 C503.18,90.235 507.651,96.062 507.651,102.843 C507.651,109.875 503.13,115.351 494.189,115.451 z" fill="#6D8199"/>
    <path d="M533.524,98.724 C531.565,96.664 528.149,95.76 525.386,95.76 C521.92,95.76 519.108,97.217 519.108,99.628 C519.108,102.843 522.171,103.446 526.693,103.848 C533.625,104.451 540.205,107.113 540.205,115.25 C540.205,123.086 532.971,126.502 525.386,126.552 C519.308,126.603 512.979,124.242 510.015,119.319 L514.687,114.447 C517.4,117.912 521.871,119.419 525.437,119.419 C529.606,119.419 532.469,117.761 532.469,115.25 C532.519,112.287 530.159,110.93 525.386,110.529 C517.953,109.825 511.322,107.966 511.422,99.678 C511.472,92.696 518.103,88.979 525.336,88.979 C530.761,88.979 534.831,90.185 538.447,94.404 z" fill="#6D8199"/>
    <path d="M155.416,42.798 L62.229,42.798 C58.746,42.798 55.895,45.649 55.895,49.132 L55.895,83.012 C50.842,82.649 45.921,81.555 41.094,80.008 C37.103,78.729 33.341,76.991 30.134,74.231 C27.969,72.367 26.531,70.003 26.099,67.192 C25.7,64.597 26.534,62.167 27.744,59.876 C29.749,56.08 32.799,53.186 36.018,50.477 C40.428,46.764 45.316,43.742 50.36,40.974 C57.112,37.27 64.085,34.028 71.222,31.136 C72.604,30.576 73.976,29.991 75.352,29.418 C75.32,29.323 75.287,29.229 75.255,29.135 C75.116,29.145 74.971,29.131 74.84,29.169 C71.77,30.056 68.68,30.885 65.636,31.858 C61.608,33.144 57.574,34.43 53.622,35.925 C49.224,37.59 44.847,39.343 40.586,41.328 C36.378,43.287 32.304,45.54 28.222,47.756 C26.736,48.562 25.409,49.654 23.985,50.579 C22.767,51.371 21.432,52.004 20.297,52.897 C18.533,54.285 16.854,55.79 15.216,57.327 C13.754,58.701 12.384,60.175 10.998,61.628 C10.485,62.165 9.93,62.709 9.587,63.353 C8.485,65.421 7.259,67.461 6.476,69.653 C5.303,72.939 5.362,76.327 6.789,79.578 C8.415,83.281 11.327,85.799 14.73,87.776 C21.216,91.541 28.403,92.952 35.74,93.443 C40.545,93.763 45.395,93.517 50.22,93.368 C52.751,93.29 55.291,92.99 57.792,92.584 C61.414,91.995 65.016,91.273 68.604,90.505 C71.586,89.867 74.579,89.221 77.491,88.331 C81.563,87.089 85.597,85.719 89.632,84.356 C97.545,81.879 126.031,71.494 155.416,42.798" fill="#6D8199"/>
    <path d="M157.772,25.378 C157.772,31.792 152.572,36.991 146.159,36.991 C139.745,36.991 134.546,31.792 134.546,25.378 C134.546,18.964 139.745,13.765 146.159,13.765 C152.572,13.765 157.772,18.964 157.772,25.378" fill="#6D8199"/>
    <path d="M114.598,101.566 C121.373,96.959 127.919,92.017 133.821,86.322 C138.402,81.902 142.886,77.355 147.112,72.598 C152.061,67.028 156.348,60.931 160.061,54.452 C160.721,53.301 161.337,52.125 161.973,50.96 C161.89,50.903 161.806,50.845 161.723,50.788 C161.513,50.968 161.29,51.135 161.093,51.329 C157.187,55.179 153.405,59.165 149.354,62.857 C142.05,69.513 133.93,75.089 125.414,80.075 C118.89,83.893 112.131,87.262 105.145,90.171 C98.471,92.951 91.67,95.357 84.701,97.282 C77.771,99.197 70.765,100.78 63.604,101.492 C58.557,101.994 53.487,102.489 48.424,102.529 C44.02,102.563 39.593,102.108 35.21,101.581 C31.93,101.186 28.64,100.549 25.471,99.625 C22.094,98.64 18.799,97.314 15.564,95.915 C11.006,93.943 6.917,91.19 3.254,87.823 C2.244,86.894 1.259,85.936 0.118,84.855 C0.058,85.331 -0.021,85.578 0.005,85.812 C0.246,88.003 0.477,90.197 0.767,92.381 C1.373,96.941 2.692,101.296 4.641,105.457 C7.19,110.894 10.894,115.409 15.702,118.989 C20.266,122.387 25.465,124.417 30.962,125.688 C35.73,126.792 40.597,127.197 45.467,126.894 C49.864,126.622 54.271,126.191 58.614,125.469 C62.779,124.777 66.918,123.798 70.976,122.628 C77.527,120.737 83.873,118.263 90.08,115.414 C98.645,111.48 106.815,106.859 114.598,101.566" fill="#6D8199"/>
    <path d="M182.83,0 C182.771,0.029 182.713,0.058 182.654,0.087 C181.775,4.331 181.023,8.606 179.986,12.811 C178.567,18.561 177.178,24.338 175.32,29.954 C173.45,35.607 171.112,41.114 168.815,46.617 C165.813,53.809 162.018,60.599 157.825,67.158 C153.124,74.512 147.981,81.546 141.884,87.813 C138.003,91.802 133.967,95.644 129.904,99.448 C128.249,100.998 126.387,102.342 124.536,103.663 C120.237,106.729 116.005,109.91 111.537,112.712 C100.071,119.904 87.709,125.131 74.724,128.904 C74.212,129.054 73.699,129.208 73.178,129.367 L55.895,129.367 L55.895,141.508 C55.895,144.992 58.746,147.843 62.23,147.843 L155.661,147.843 C159.145,147.843 161.996,144.992 161.996,141.508 L161.996,84.551 C164.524,79.979 166.809,75.276 168.848,70.44 C169.599,68.661 170.353,66.883 171.105,65.104 L173.261,59.008 C174.629,54.671 176.025,50.336 177.181,45.939 C178.184,42.12 178.86,38.215 179.713,34.355 C182.147,23.335 182.805,12.14 183.035,0.903 C183.041,0.603 182.902,0.301 182.83,0" fill="#B3B3B3"/>
  </g>
</svg>
