<svg xmlns="http://www.w3.org/2000/svg" viewBox="0 0 612.71 547.56"><defs><style>.cls-1{fill:none;stroke:#feae00;stroke-miterlimit:10;stroke-width:8px;}.cls-2{fill:#feae00;}</style></defs><g id="Layer_2" data-name="Layer 2"><g id="Lifespan"><path class="cls-1" d="M306.36,542.77s-357.69-235.95-295-433.42c.21-.71.44-1.41.68-2.12A149.5,149.5,0,0,1,66,33.15,152.23,152.23,0,0,1,241.4,30.5h0c.38.28,9.65,7.23,21.08,17.45,19,17,43.87,43,43.87,62.44,0-19.48,24.9-45.47,43.87-62.44,11.43-10.22,20.7-17.17,21.08-17.45h0a152.23,152.23,0,0,1,175.41,2.65,149.5,149.5,0,0,1,53.93,74.08c.24.71.47,1.41.68,2.12C664.05,306.82,306.36,542.77,306.36,542.77Z"/><path class="cls-2" d="M306.36,286.47c-16.28,16.29-33.2,34.16-59.06,34.16-26.82,0-46-19.79-46-47.25,0-25.22,20.43-47.24,48.52-47.24,23.63,0,41.18,18.83,56.51,34.16,16.28-16.29,33.2-34.16,59.06-34.16,27.13,0,46,19.79,46,47.24,0,25.23-20.43,47.25-48.53,47.25C339.24,320.63,321.68,301.8,306.36,286.47Zm-12.77-13.09c-12.45-11.49-25.54-28.09-44.06-28.09a28.13,28.13,0,0,0-28.09,28.09c0,16.29,11.49,28.1,27.13,28.1C266.77,301.48,281.46,285.84,293.59,273.38Zm97.69,0c0-16.28-11.5-28.09-27.14-28.09-18.2,0-32.88,15.64-45,28.09,12.45,11.5,25.54,28.1,44.05,28.1A28.13,28.13,0,0,0,391.28,273.38Z"/></g></g></svg>