<svg xmlns="http://www.w3.org/2000/svg" viewBox="0 0 651.52 576.93"><defs><style>.cls-1,.cls-2,.cls-3,.cls-4,.cls-5{fill:none;stroke-miterlimit:10;}.cls-1,.cls-2{stroke:#009fe3;stroke-width:6.5px;}.cls-1,.cls-3,.cls-5{stroke-linecap:round;}.cls-3,.cls-5{stroke:#009640;}.cls-3{stroke-width:8px;}.cls-4{stroke:#fff;}.cls-4,.cls-5{stroke-width:6px;}</style></defs><g id="Layer_2" data-name="Layer 2"><g id="Food_Sustainability" data-name="Food Sustainability"><path class="cls-1" d="M644.59,98.29h0c.08-.21,2.51-6.87,2.32-11.14-.15-3.63-2.49-10.27-6.77-11.3C636.45,75,636,79.73,626,86.32c-7.63,5-10.26,3.44-14.43,6.75-7.15,5.68-10,13-12.49,19.14a68.85,68.85,0,0,0-4.59,33.71l-.21.27c-.81,1-2,2.54-3.66,4.29-.93,1-1.63,1.71-1.73,1.82-7.82,8-13.37,32.86-13.37,32.86-1.59,13.83-6.28,23.05-12.23,32.45-5.71,9-6.88,15.57-13,27.51s-29.41,30.33-39.22,37.07c-32.05,22-44.6,37.62-48.4,53-3.49,14.14.95,22.61-6.41,40.28A78.72,78.72,0,0,1,441.83,398"/><path class="cls-2" d="M563.28,217.61s-2.79-6.86-9.93-7.46a45.54,45.54,0,0,0-13.41,1.3c-4.79,1.08-10.2,2.8-16.08,4.57,0,0-23.55,6.43-48.73,32.36-13.34,13.74-24.08,21.84-30.45,28.3-47.44,48.09-65.24,41.73-87.54,71.25-27.39,36.24-37,94.55-20.75,134.86,4.74,11.72,13.85,17.12,19.95,34.7,6.84,19.69,8.57,43,8.57,56.19h97.24c0-40.39-5.94-63.81-15-78.81-5.56-9.18-13.71-19.67-12.23-33.2,1.45-13.15,13.35-20.78,21.26-28.53,10.23-10,73.6-55.05,108.86-101,6.82-8.89,17.11-22.47,25.9-42.73,7.59-17.48,7.35-24.46,17.13-69,9.61-43.78,15.71-65.06,19.85-72.79,11-20.59,19.4-35.27,20.17-39.12s-.91-9.16-3.46-10.19c-5.54-2.23-11,1.61-21.12,7.43a38.2,38.2,0,0,0-7.36,5.44c-1.82,1.72-4.81,4.75-10.72,15.39s-6.19,13.37-11.15,19.63"/><path class="cls-2" d="M540,211.46c4.88-15,6.08-27.68,10.63-34.89,9.62-15.27,13.55-15,18-26.48,5.49-14,7.74-21.25,15.73-28.95a27.13,27.13,0,0,1,13.9-6.79"/><path class="cls-1" d="M6.92,98.29h0c-.08-.21-2.5-6.87-2.32-11.14.16-3.63,2.49-10.27,6.78-11.3,3.69-.89,4.17,3.88,14.15,10.47,7.62,5,10.26,3.44,14.43,6.75,7.15,5.68,10,13,12.49,19.14A68.85,68.85,0,0,1,57,145.92l.21.27c.81,1,2,2.54,3.65,4.29.93,1,1.63,1.71,1.74,1.82,7.82,8,13.36,32.86,13.36,32.86,1.59,13.83,6.28,23.05,12.23,32.45,5.72,9,6.88,15.57,13,27.51s29.41,30.33,39.21,37.07c32.06,22,44.61,37.62,48.41,53,3.49,14.14-1,22.61,6.41,40.28A78.72,78.72,0,0,0,209.69,398"/><path class="cls-2" d="M88.23,217.61s2.79-6.86,9.94-7.46a45.47,45.47,0,0,1,13.4,1.3c4.79,1.08,10.2,2.8,16.09,4.57,0,0,23.55,6.43,48.73,32.36,13.34,13.74,24.08,21.84,30.45,28.3,47.44,48.09,65.23,41.73,87.54,71.25,27.39,36.24,37,94.55,20.74,134.86-4.73,11.72-13.84,17.12-19.95,34.7-6.84,19.69-8.57,43-8.57,56.19H189.37c0-40.39,5.93-63.81,15-78.81,5.56-9.18,13.71-19.67,12.22-33.2-1.44-13.15-13.35-20.78-21.25-28.53-10.23-10-73.6-55.05-108.87-101-6.82-8.89-17.1-22.47-25.9-42.73-7.59-17.48-7.35-24.46-17.12-69-9.62-43.78-15.71-65.06-19.86-72.79C12.57,127,4.21,112.34,3.44,108.49S4.35,99.33,6.9,98.3c5.53-2.23,11,1.61,21.12,7.43a38.2,38.2,0,0,1,7.36,5.44c1.82,1.72,4.8,4.75,10.72,15.39s6.19,13.37,11.15,19.63"/><path class="cls-2" d="M111.57,211.46c-4.88-15-6.08-27.68-10.63-34.89-9.63-15.27-13.55-15-18-26.48-5.49-14-7.73-21.25-15.72-28.95a27.17,27.17,0,0,0-13.9-6.79"/><line class="cls-3" x1="387.29" y1="106.27" x2="342.81" y2="150.75"/><path class="cls-4" d="M409.27,262.73a3.58,3.58,0,0,0,.93.68c4.62,2.26,9.58,1.78,12.48-1.26s3.16-7.63,1.05-12.06a3.87,3.87,0,0,0-.8-1.11l-218-206.86a3.4,3.4,0,0,0-1.51-.87,3.1,3.1,0,0,0-2.92.61c-1,1-.69,2.77-.56,3.48,1,5.71,25.25,44.37,28.74,49.91a462.15,462.15,0,0,0,37.14,54.14c8.86,11.15,17.64,21.15,26,30,1.19,1.26,3,1.48,3.95.48l13.29-14c.93-1,2.68-.79,3.87.41Z"/><line class="cls-5" x1="440.02" y1="3" x2="388.75" y2="54.27"/><line class="cls-5" x1="489.82" y1="52.2" x2="438.55" y2="103.47"/><line class="cls-5" x1="473.42" y1="35.6" x2="422.15" y2="86.87"/><line class="cls-5" x1="456.42" y1="19.6" x2="405.15" y2="70.87"/><path class="cls-5" d="M437.9,104.47a35.22,35.22,0,0,1-49.8-49.81Z"/><path class="cls-3" d="M282.27,188.68,228.66,241.9c-5.46,7.15-4.93,17.06.78,23.09,6.45,6.8,18.07,7.14,25.44,0l60.26-71.61"/></g></g></svg>