<svg xmlns="http://www.w3.org/2000/svg" viewBox="0 0 359.06 582.62"><defs><style>.cls-1{fill:#60d937;}.cls-2,.cls-3{fill:none;stroke:#60d937;stroke-miterlimit:10;stroke-width:8px;}.cls-3{stroke-linecap:round;}</style></defs><g id="Layer_2" data-name="Layer 2"><g id="Alt_Ren_Energy" data-name="Alt/Ren Energy"><path class="cls-1" d="M158.23,563.3h42.86a0,0,0,0,1,0,0v5.63a13.69,13.69,0,0,1-13.69,13.69H171.92a13.69,13.69,0,0,1-13.69-13.69V563.3A0,0,0,0,1,158.23,563.3Z"/><path class="cls-2" d="M355.06,179.53a174.82,174.82,0,0,1-37.92,109C285.9,327.9,269.49,377,269.49,427.27h0a37.5,37.5,0,0,1-37.5,37.5H127.08a37.5,37.5,0,0,1-37.51-37.5h0c0-50.26-16.41-99.37-47.64-138.75a175.53,175.53,0,1,1,313.13-109Z"/><path class="cls-2" d="M199.33,560.66H162.15a25.56,25.56,0,0,1-25.37-22.39l-9.12-73H231.41l-6.62,72.19A25.56,25.56,0,0,1,199.33,560.66Z"/><line class="cls-2" x1="128.63" y1="495.68" x2="226.73" y2="495.68"/><line class="cls-2" x1="132.58" y1="525.19" x2="226.73" y2="525.19"/><path class="cls-3" d="M24.77,176.48A154.77,154.77,0,0,1,179.54,21.7"/><path class="cls-2" d="M186.39,422.79c-12.22-7.66-30.38-21.38-43-43.9-23-41.1-8.18-77.25-14.48-141.51-2.22-22.66-7.81-56.42-23.82-97.14C195.41,226.55,240,324.58,209.75,390.57A104.1,104.1,0,0,1,186.39,422.79Z"/><path class="cls-1" d="M157.57,239.51a201.16,201.16,0,0,1,13.19,25.88,245.66,245.66,0,0,1,9.86,27.4A211.43,211.43,0,0,1,187,321.25c.41,2.4.69,4.81,1,7.22s.64,4.82.86,7.24l.76,7.24.56,7.26c1.48,19.36.65,38.77-.75,58-.71,9.64-1.8,19.25-3.14,28.83s-3,19.13-4.83,28.68l-6.67-1.68a235.33,235.33,0,0,0,6.86-27.76,276.23,276.23,0,0,0,3.79-28.38c1.6-19.06.46-38.22-1.64-57.12-1-9.47-2.67-18.85-4.59-28.15s-4-18.55-6.26-27.78-4.71-18.42-7.43-27.57-5.67-18.25-8.62-27.46Z"/></g></g></svg>