<?xml version="1.0" encoding="utf-8"?>
<!-- Generator: Adobe Illustrator 25.3.1, SVG Export Plug-In . SVG Version: 6.00 Build 0)  -->
<svg version="1.1"
	 id="svg133" inkscape:version="0.92.4 (5da689c313, 2019-01-14)" sodipodi:docname="diversity-2019.svg" xmlns:cc="http://creativecommons.org/ns#" xmlns:dc="http://purl.org/dc/elements/1.1/" xmlns:inkscape="http://www.inkscape.org/namespaces/inkscape" xmlns:rdf="http://www.w3.org/1999/02/22-rdf-syntax-ns#" xmlns:sodipodi="http://sodipodi.sourceforge.net/DTD/sodipodi-0.dtd" xmlns:svg="http://www.w3.org/2000/svg"
	 xmlns="http://www.w3.org/2000/svg" xmlns:xlink="http://www.w3.org/1999/xlink" x="0px" y="0px" viewBox="0 0 595.28 582.42"
	 style="enable-background:new 0 0 595.28 582.42;" xml:space="preserve">
<style type="text/css">
	.st0{fill:#C22EDC;}
	.st1{fill:#FE0000;}
	.st2{fill:#0644B3;}
	.st3{fill:#784F17;}
	.st4{fill:#FF8B00;}
	.st5{fill:#FFED00;}
	.st6{fill:#119F0B;}
</style>
<sodipodi:namedview  bordercolor="#666666" borderopacity="1.0" id="base" inkscape:current-layer="layer1" inkscape:cx="-15.394047" inkscape:cy="733.40021" inkscape:document-units="mm" inkscape:pageopacity="0.0" inkscape:pageshadow="2" inkscape:snap-global="false" inkscape:window-height="1016" inkscape:window-maximized="1" inkscape:window-width="1920" inkscape:window-x="0" inkscape:window-y="27" inkscape:zoom="0.35355339" pagecolor="#ffffff" showgrid="false">
	</sodipodi:namedview>
<g id="layer1" inkscape:groupmode="layer" inkscape:label="Camada 1">
	<path id="path4460" inkscape:connector-curvature="0" sodipodi:nodetypes="cccccccccccccccccccccc" class="st0" d="M327.04,194.02
		c-6.01-0.58-12.1-0.4-18.1,0.56c-12,1.92-23.36,6.93-32.88,14.47c-9.52,7.55-17.65,17.84-22.27,29.08
		c-1.88,3.6-3.61,7.2-4.49,10.79l22.91,9.17l4.58-11.17c3.02-7.35,8.03-14.02,14.26-18.96h0.01c6.23-4.94,13.86-8.29,21.71-9.55
		c7.85-1.26,16.15-0.45,23.61,2.29c7.46,2.74,14.3,7.5,19.46,13.54c8,9.36,12.18,22.46,11.06,34.72
		c-1.12,12.27-7.58,24.4-17.14,32.16l-9.38,7.61l15.23,18.74l9.37-7.61c14.79-12.02,24.24-29.74,25.96-48.72
		c1.72-18.98-4.37-38.11-16.75-52.59c-7.89-9.24-18.09-16.33-29.49-20.52C339,195.95,333.05,194.6,327.04,194.02L327.04,194.02z"/>
	<path id="path4454" inkscape:connector-curvature="0" d="M457.7,56.5L442.32,75.1l9.31,7.69c20.98,17.34,38.3,39.2,50.39,63.59
		c18.3,36.93,24.49,79.95,18.01,120.8c-6.82,42.91-27.65,83.71-58.41,114.39l-8.54,8.53l17.05,17.09l8.55-8.53
		c34.45-34.38,57.55-79.63,65.19-127.7c7.27-45.77,0.42-93.66-20.22-135.31v-0.01c-13.61-27.46-33.02-51.95-56.64-71.47L457.7,56.5
		L457.7,56.5z"/>
	<path id="path4456" inkscape:connector-curvature="0" class="st1" d="M237.64,492.17l-12.08,20.91l10.46,6.04
		c34.2,19.76,71.2,34.61,109.57,43.96c33.67,8.21,68.36,12.18,103.01,11.81l12.07-0.13l-0.26-24.15l-12.07,0.13
		c-32.63,0.35-65.33-3.4-97.04-11.13c-36.13-8.81-71.02-22.8-103.22-41.41L237.64,492.17L237.64,492.17z"/>
	<path id="path4458" inkscape:connector-curvature="0" sodipodi:nodetypes="cccccccccccccccccccc" class="st2" d="M287.46,43.78
		c-15.32-0.85-30.74,0.21-45.83,3.2c-40.52,8.03-77.35,29.73-105.62,59.18c-28.52,29.7-46.29,67.58-57.4,105.87l-0.3,1.29
		c-22.32,124.09,5.8,234.22,95.98,312.07l9.14,7.89l15.78-18.28l-9.14-7.89c-83.36-71.97-108.31-171.56-88.05-289
		c10.37-35.5,26.7-69.5,51.41-95.23c25.11-26.15,57.81-45.27,92.9-52.22c26.12-5.18,53.67-3.66,79.07,4.36
		c25.67,8.11,50.81,22.36,68.91,41.28l8.34,8.72l17.45-16.69l-8.35-8.72c-21.57-22.54-50.04-38.44-79.08-47.61
		C318,47.38,302.78,44.63,287.46,43.78L287.46,43.78z"/>
	<path id="path4462" inkscape:connector-curvature="0" sodipodi:nodetypes="ssccccsccccccccs" class="st1" d="M273.96,24.62
		c-21.82,0.33-43.59,3.79-64.45,10.37c-41.71,13.16-79.26,38.65-106.89,72.56L95,116.9l20.03,15.26l6.75-9.36
		c24.59-30.18,57.88-53.07,95.01-64.78c37.13-11.72,77.87-12.33,115.33-1.73c42.77,12.1,81.48,39.02,107.71,74.91
		c25.95,35.52,36.76,80.38,35.27,125.38l-0.4,12.07l24.14,0.8l0.4-12.07c1.63-49.38-10.15-99.68-39.91-140.42
		c-29.49-40.36-72.53-70.3-120.63-83.9C317.65,27.1,295.78,24.29,273.96,24.62z"/>
	<path id="path4464" inkscape:connector-curvature="0" class="st3" d="M289.72,0l-3.3,23.92l11.96,1.65
		c28.81,3.98,56.95,13.08,82.63,26.73c37.15,19.75,69.24,49.36,90.3,85.39c21.04,35.99,30.96,78.74,26.32,119.84
		c-4.44,39.36-22.57,77.45-51.2,104.29c-28.09,26.34-67.28,37.57-106.96,35.69c-44.94-2.14-87.5-23.05-110.57-60.26l-6.36-10.27
		l-20.52,12.73l6.36,10.26c27.91,45.01,78.25,69.2,129.94,71.65c44.98,2.14,90.88-10.56,124.62-42.19h0.01
		c33.2-31.13,53.62-74.33,58.68-119.2c5.27-46.73-5.9-94.43-29.47-134.73c-23.54-40.26-58.94-72.79-99.82-94.52
		c-28.2-14.99-59.02-24.96-90.66-29.33L289.72,0z"/>
	<path id="path4466" inkscape:connector-curvature="0" class="st4" d="M257.47,170.9l-9.74,7.14c-16.49,12.1-30.42,31.76-38.45,51.7
		c-8.03,19.94-10.3,41.99-6.51,63.15c4.75,26.53,18.82,50.59,38.27,68.62c19.4,18,43.72,29.8,69.16,35.33
		c45.01,9.79,93.48-0.41,130.72-27.52l9.76-7.1l-14.21-19.52l-9.76,7.1c-31.45,22.89-73.36,31.71-111.37,23.45
		c-21.57-4.69-42.01-14.73-57.88-29.45c-15.82-14.67-27.18-34.35-30.91-55.17c-2.98-16.61-1.16-34.22,5.14-49.87
		c6.3-15.66,19.14-33.04,30.33-41.24l9.74-7.14L257.47,170.9z"/>
	<path id="path4468" inkscape:connector-curvature="0" sodipodi:nodetypes="ccccccccccccccccccc" class="st5" d="M322.64,174.01
		c-19.61-0.91-39.24,4.3-55.82,14.8c-16.22,10.28-29.09,25.34-36.79,42.88h0.01c-7.7,17.54-10.07,37.14-6.88,55.98
		c4.67,27.63,21.26,52.52,44.97,67.45l10.22,6.44l12.87-20.43l-10.22-6.43c-17.67-11.13-30.55-30.46-34.03-51.05
		c-2.39-14.14-0.57-29.15,5.18-42.24c5.75-13.09,15.56-24.56,27.6-32.19c12.3-7.79,27.33-13.74,41.88-13.07
		c18.91,0.88,30.18,4.7,41.34,13.31l9.55,7.37l13.33-17.22l-9.55-7.38C360.39,179.96,341.47,174.89,322.64,174.01L322.64,174.01z"/>
	<path id="path4470" inkscape:connector-curvature="0" class="st0" d="M143.17,125.06l-6.33,10.28
		c-37.6,61.12-52.21,135.64-40.49,206.43c13.34,80.59,61.16,154.88,130.32,198.72c35.71,22.64,76.48,37.07,118.48,41.93l11.99,1.39
		l2.77-23.98l-11.99-1.39C309.58,554,272.2,540.76,239.6,520.1c-62.95-39.91-107.21-108.53-119.42-182.26v-0.01
		c-10.74-64.88,2.78-133.82,37.23-189.83l6.33-10.28L143.17,125.06z"/>
	<path id="path4472" inkscape:connector-curvature="0" sodipodi:nodetypes="ccccccccsccc" class="st6" d="M67.32,172.86l-3.69,11.5
		c-16.79,52.38-21.11,108.6-12.53,162.93c5.57,35.24,16.5,69.61,32.32,101.59l5.35,10.82l21.65-10.71l-5.35-10.82
		c-14.73-29.78-24.93-61.82-30.12-94.64c-1.96-12.43-3.11-24.97-3.63-37.55c-1.58-38.59,3.53-77.49,15.31-114.24l3.68-11.5
		L67.32,172.86z"/>
</g>
</svg>
