<?xml version="1.0" encoding="utf-8"?>
<!-- Generator: Adobe Illustrator 25.3.1, SVG Export Plug-In . SVG Version: 6.00 Build 0)  -->
<svg version="1.1" id="Layer_1" xmlns="http://www.w3.org/2000/svg" xmlns:xlink="http://www.w3.org/1999/xlink" x="0px" y="0px"
	 viewBox="0 0 228.84 213" style="enable-background:new 0 0 228.84 213;" xml:space="preserve">
<style type="text/css">
	.st0{fill:none;}
	.st1{fill:#77A4BD;}
	.st2{fill:#333333;}
	.st3{fill:#E15C64;}
	.st4{opacity:0.2;enable-background:new    ;}
	.st5{fill:#F3E4C7;}
	.st6{fill:#F7B26A;}
	.st7{fill:none;stroke:#FFFFFF;stroke-width:9.1272;stroke-linecap:round;stroke-miterlimit:4.7;}
</style>
<path class="st0" d="z"/>
<g>
	<g>
		<path class="st1" d="M191.53,120.4c-2.35,0.01-4.6-0.93-6.26-2.59l-21.56-21.56c-1.78-1.78-1.78-4.67,0-6.45
			c0.86-0.86,2.02-1.34,3.23-1.34h12.81c-3.89-32.86-31.72-57.94-65.33-57.94c-24.51-0.04-47,13.58-58.33,35.32
			c-0.78,1.51-2.34,2.45-4.04,2.45c-0.73,0-1.46-0.17-2.12-0.52l-11.95-6.26c-2.23-1.17-3.09-3.92-1.93-6.15c0,0,0,0,0-0.01
			C51.37,26.09,81.4,7.91,114.42,7.91c45.84-0.14,84.13,34.89,88.06,80.56h13.64c2.52,0,4.56,2.05,4.56,4.57
			c0,1.21-0.48,2.36-1.33,3.22l-21.56,21.55C196.13,119.48,193.88,120.41,191.53,120.4z"/>
		<path class="st2" d="M114.42,12.47c45.14,0,82.04,35.85,83.77,80.56h17.93l-21.56,21.55c-1.67,1.67-4.37,1.68-6.05,0.02
			c-0.01-0.01-0.01-0.01-0.02-0.02l-21.56-21.55h17.76c-1.73-37.27-32.59-67.07-70.28-67.07c-26.28,0-50.18,14.47-62.38,37.77
			l-11.95-6.26C54.63,29.71,83.11,12.47,114.42,12.47 M114.42,3.34C79.7,3.34,48.12,22.46,32,53.24c-2.34,4.47-0.61,9.98,3.85,12.32
			l11.95,6.26c4.46,2.34,9.98,0.62,12.32-3.84c0,0,0-0.01,0-0.01c10.54-20.23,31.48-32.91,54.29-32.88
			c29.51,0,54.24,20.78,59.98,48.81h-7.46c-5.04,0-9.13,4.09-9.13,9.13c0,2.42,0.96,4.74,2.67,6.45l21.56,21.55
			c2.51,2.52,5.93,3.94,9.49,3.93c3.56,0.01,6.98-1.41,9.49-3.93l21.56-21.55c3.56-3.56,3.56-9.34,0-12.91
			c-1.71-1.71-4.03-2.67-6.45-2.67h-9.56c-2.77-20.69-12.4-39.79-27.64-54.49C161.49,12.6,138.58,3.34,114.42,3.34z"/>
	</g>
	<g>
		<path class="st3" d="M114.42,205.09c-45.84,0.14-84.13-34.89-88.06-80.56H12.72c-2.52,0-4.56-2.05-4.56-4.57
			c0-1.21,0.48-2.36,1.33-3.22l21.56-21.55c1.66-1.67,3.91-2.6,6.26-2.59c2.37,0,4.59,0.92,6.26,2.59l21.56,21.56
			c1.78,1.78,1.78,4.67,0,6.45c-0.86,0.86-2.02,1.34-3.23,1.34H49.09c3.89,32.86,31.72,57.94,65.33,57.94
			c24.57,0,46.92-13.53,58.33-35.32c0.78-1.51,2.34-2.45,4.04-2.45c0.73,0,1.46,0.17,2.12,0.52l11.95,6.26
			c2.23,1.17,3.09,3.92,1.93,6.15c0,0,0,0,0,0.01C177.46,186.91,147.43,205.09,114.42,205.09z"/>
		<path class="st2" d="M37.31,97.16c1.1,0,2.2,0.42,3.03,1.26l21.56,21.55H44.14c1.73,37.27,32.59,67.07,70.28,67.07
			c26.28,0,50.18-14.47,62.38-37.77l11.95,6.26c-14.54,27.76-43.02,45-74.33,45c-45.14,0-82.04-35.85-83.77-80.56H12.72l21.56-21.55
			C35.08,97.61,36.17,97.16,37.31,97.16 M37.31,88.03c-3.56-0.01-6.98,1.41-9.49,3.93L6.26,113.51c-3.56,3.57-3.56,9.34,0,12.91
			c1.71,1.71,4.03,2.67,6.45,2.67h9.56c2.77,20.69,12.4,39.79,27.64,54.49c17.43,16.81,40.33,26.07,64.5,26.07
			c34.72,0,66.3-19.12,82.42-49.89c2.34-4.47,0.61-9.98-3.85-12.32l-11.95-6.26c-4.46-2.34-9.98-0.62-12.32,3.84c0,0,0,0,0,0.01
			c-10.54,20.23-31.48,32.91-54.29,32.88c-29.51,0-54.24-20.78-59.98-48.81h7.45c5.04,0,9.13-4.09,9.13-9.13
			c0-2.42-0.96-4.74-2.67-6.45L46.79,91.96C44.28,89.44,40.87,88.02,37.31,88.03z"/>
	</g>
	<path class="st4" d="M174.39,83.91h-7.46c-5.04,0-9.13,4.09-9.13,9.13c0,2.42,0.96,4.74,2.67,6.45l21.56,21.55
		c2.51,2.52,5.93,3.94,9.49,3.93c3.56,0.01,6.98-1.41,9.49-3.93l21.56-21.55c3.56-3.56,3.56-9.34,0-12.91
		c-1.71-1.71-4.03-2.67-6.45-2.67h-9.56c-2.77-20.69-12.4-39.79-27.64-54.49c-8.05-7.77-17.43-14.02-27.7-18.46l-11.52,29.59
		C157.25,48.48,170.4,64.43,174.39,83.91z"/>
	<path class="st4" d="M196.83,159.76c2.34-4.47,0.61-9.98-3.85-12.32l-11.95-6.26c-4.46-2.34-9.98-0.61-12.32,3.85
		c-10.54,20.23-31.48,32.91-54.29,32.88c-9.28,0-18.09-2.06-25.98-5.75l-11.52,29.59c11.81,5.23,24.59,7.92,37.5,7.91
		C149.14,209.66,180.72,190.54,196.83,159.76z"/>
	<g>
		<path class="st5" d="M112.53,155.98c-4.75,0-8.61-3.86-8.61-8.61v-0.58c-10.89-3.42-19.11-11.92-21.4-22.49
			c-0.56-2.56,0.07-5.23,1.72-7.26c1.63-2.02,4.08-3.2,6.68-3.19h3.91c3.89,0,7.23,2.59,8.31,6.44c0.18,0.63,0.44,1.24,0.78,1.82
			v-7.18c-18.1-5.18-22.04-16.12-22.04-24.65c0-12.48,8.34-21.65,22.04-24.64v-0.03c0.01-4.75,3.86-8.61,8.61-8.61h3.77
			c4.75,0,8.61,3.86,8.61,8.61v0.58c10.89,3.42,19.11,11.92,21.4,22.49c0.56,2.56-0.07,5.23-1.72,7.26
			c-1.63,2.02-4.08,3.2-6.68,3.19h-3.91c-3.89,0-7.23-2.59-8.31-6.44c-0.18-0.64-0.44-1.25-0.78-1.82v7.36
			c19.07,5.97,22.04,17.74,22.04,24.46c0,12.48-8.34,21.65-22.04,24.64v0.03c-0.01,4.75-3.86,8.61-8.61,8.61H112.53z M124.91,125.05
			c1.04-0.92,1.04-1.85,1.04-2.34c0-0.34-0.32-0.85-1.04-1.46C124.91,121.25,124.91,125.05,124.91,125.05z M103.92,87.95
			c-1.04,0.92-1.04,1.85-1.04,2.34c0,0.49,0,1.16,1.04,1.98V87.95z"/>
		<path class="st2" d="M116.3,61.58c2.23,0,4.05,1.81,4.05,4.05v4.12c10.84,2.14,19.36,10,21.51,19.91
			c0.49,2.18-0.89,4.34-3.07,4.83c-0.28,0.06-0.58,0.1-0.87,0.1h-3.91c-1.87,0-3.41-1.31-3.92-3.11c-1.22-4.33-4.91-7.86-9.74-9.48
			v19.71c19.03,4.77,22.04,15.03,22.04,21c0,11.47-8.3,19.1-22.04,20.78v3.88c0,2.23-1.81,4.05-4.05,4.05h-3.77
			c-2.24,0-4.05-1.81-4.05-4.05c0,0,0,0,0,0v-4.12c-10.84-2.14-19.36-10-21.51-19.91c-0.49-2.18,0.89-4.34,3.07-4.83
			c0.28-0.06,0.58-0.1,0.87-0.1h3.91c1.87,0,3.41,1.31,3.92,3.11c1.22,4.33,4.91,7.86,9.74,9.48v-19.62
			c-9.03-2.01-22.04-6.74-22.04-21.1c0-11.47,8.3-19.1,22.04-20.78v-3.88c0-2.23,1.81-4.05,4.05-4.05L116.3,61.58 M108.49,99.1
			V81.48c-5.1,0.83-10.17,3.1-10.17,8.81C98.32,92.6,98.32,96.21,108.49,99.1 M120.35,131.52c5.1-0.83,10.17-3.1,10.17-8.81
			c0-4.35-5.16-7.06-10.17-8.67V131.52 M116.3,52.45h-3.77c-5.87,0.01-11.02,3.89-12.66,9.52c-14.09,4.11-22.55,14.48-22.55,28.32
			c0,9.02,3.55,15.45,8.46,20.03c-1.99,0.85-3.75,2.17-5.11,3.86c-2.51,3.11-3.48,7.19-2.62,11.09c2.43,11.21,10.6,20.4,21.59,24.83
			c1.3,6.08,6.67,10.43,12.89,10.44h3.77c5.87-0.01,11.02-3.89,12.66-9.52c14.09-4.11,22.55-14.48,22.55-28.32
			c0-4.35-1.16-12.7-8.87-19.86c2.16-0.83,4.07-2.22,5.52-4.03c2.51-3.11,3.48-7.19,2.62-11.09c-2.43-11.21-10.6-20.4-21.59-24.83
			C127.89,56.81,122.52,52.46,116.3,52.45z"/>
	</g>
	<g>
		<g>
			<path class="st6" d="M120.35,81.99c0.87,0.29,1.69,0.67,2.48,1.08l10.15-7.47c-1.74-1.4-3.65-2.59-5.67-3.54l-18.82,13.86v7.71
				l11.87-8.74V81.99z"/>
		</g>
		<g>
			<path class="st6" d="M93.29,104.83l10.24-7.54c-2.93-1.4-4.21-2.86-4.77-4.2l-9.62,7.09C90.25,101.95,91.65,103.52,93.29,104.83z
				"/>
		</g>
		<g>
			<path class="st6" d="M90.91,118.41c-2.26,0-4,1.84-4.03,3.99l5.42-3.99H90.91z"/>
		</g>
		<g>
			<path class="st6" d="M129.84,90.76l9.76-7.19c-0.98-1.83-2.18-3.54-3.57-5.08l-9.62,7.08C127.95,87,129.13,88.78,129.84,90.76z"
				/>
		</g>
		<g>
			<path class="st6" d="M103.61,110.09l16.74-12.33v-7.71l-11.87,8.74l-0.31,0.23l-11.23,8.27
				C99.09,108.46,101.37,109.38,103.61,110.09z"/>
		</g>
		<g>
			<path class="st6" d="M98.75,121.53c-0.21-0.71-0.6-1.36-1.13-1.88L88,126.73c1.49,3.89,3.99,7.34,7.21,10.12l9.97-7.35
				C102.01,127.62,99.66,124.8,98.75,121.53z"/>
		</g>
		<g>
			<path class="st6" d="M108.49,111.63v15.43l11.87-8.74v-4.28c1.29,0.41,2.59,0.9,3.81,1.48l10.3-7.59
				c-3.05-2.28-7.24-4.34-12.94-5.89C121.52,102.04,108.49,111.63,108.49,111.63z"/>
		</g>
		<g>
			<path class="st6" d="M141.86,89.66c-0.16-0.73-0.36-1.46-0.59-2.17l-9,6.63c0.53,0.27,1.11,0.47,1.74,0.47h3.91
				C140.51,94.59,142.41,92.19,141.86,89.66z"/>
		</g>
	</g>
	<path class="st7" d="M102.6,73.28c-6.43,1.38-10.97,4.53-12.88,10.11"/>
</g>
<path class="st0" d="z"/>
</svg>
